HIERARCHY
ROOT Hips
{
	OFFSET 62.090000 4.436574 96.995796
	CHANNELS 6 Xposition Yposition Zposition Xrotation Yrotation Zrotation
	JOINT spine
	{
		OFFSET 0.000000 -0.458068 7.965683
		CHANNELS 3 Xrotation Yrotation Zrotation
		JOINT spine1
		{
			OFFSET 0.000000 -0.000002 10.243103
			CHANNELS 3 Xrotation Yrotation Zrotation
			JOINT spine2
			{
				OFFSET 0.000000 -0.000001 9.814751
				CHANNELS 3 Xrotation Yrotation Zrotation
				JOINT Neck
				{
					OFFSET 0.000000 -1.201384 25.198593
					CHANNELS 3 Xrotation Yrotation Zrotation
					JOINT Head
					{
						OFFSET 0.000000 -0.000001 7.613144
						CHANNELS 3 Xrotation Yrotation Zrotation
						End Site
						{
							OFFSET 0.000000 6.077327 18.428101
						}
					}
				}
				JOINT RightShoulder
				{
					OFFSET -4.132702 0.575449 10.599197
					CHANNELS 3 Xrotation Yrotation Zrotation
					JOINT RightArm
					{
						OFFSET 0.000000 -0.000002 13.901794
						CHANNELS 3 Xrotation Yrotation Zrotation
						JOINT RightArmRoll
						{
							OFFSET 0.000000 -0.000001 7.017883
							CHANNELS 3 Xrotation Yrotation Zrotation
							JOINT RightForeArm
							{
								OFFSET 0.000000 -0.000003 20.440598
								CHANNELS 3 Xrotation Yrotation Zrotation
								JOINT RightForeArmRoll
								{
									OFFSET 0.000000 -0.000001 7.875168
									CHANNELS 3 Xrotation Yrotation Zrotation
									JOINT RightHand
									{
										OFFSET 0.000000 -0.000003 15.803696
										CHANNELS 3 Xrotation Yrotation Zrotation
										End Site
										{
											OFFSET 0.000000 0.000000 0.100006
										}
									}
								}
							}
						}
					}
				}
				JOINT LeftShoulder
				{
					OFFSET 4.132702 0.575449 10.599197
					CHANNELS 3 Xrotation Yrotation Zrotation
					JOINT LeftArm
					{
						OFFSET 0.000000 -0.000002 13.901794
						CHANNELS 3 Xrotation Yrotation Zrotation
						JOINT LeftArmRoll
						{
							OFFSET 0.000000 -0.000001 7.017883
							CHANNELS 3 Xrotation Yrotation Zrotation
							JOINT LeftForeArm
							{
								OFFSET 0.000000 -0.000003 20.440598
								CHANNELS 3 Xrotation Yrotation Zrotation
								JOINT LeftForeArmRoll
								{
									OFFSET 0.000000 -0.000001 7.875168
									CHANNELS 3 Xrotation Yrotation Zrotation
									JOINT LeftHand
									{
										OFFSET 0.000000 -0.000003 15.803696
										CHANNELS 3 Xrotation Yrotation Zrotation
										End Site
										{
											OFFSET 0.000000 0.000000 0.100006
										}
									}
								}
							}
						}
					}
				}
			}
		}
	}
	JOINT RightUpLeg
	{
		OFFSET -7.060482 1.086100 -1.294701
		CHANNELS 3 Xrotation Yrotation Zrotation
		JOINT RightUpLegRoll
		{
			OFFSET 0.000000 -0.000003 18.530800
			CHANNELS 3 Xrotation Yrotation Zrotation
			JOINT RightLeg
			{
				OFFSET 0.000000 0.000004 -22.947601
				CHANNELS 3 Xrotation Yrotation Zrotation
				JOINT RightLegRoll
				{
					OFFSET 0.000000 -0.000004 23.022598
					CHANNELS 3 Xrotation Yrotation Zrotation
					JOINT RightFoot
					{
						OFFSET 0.000000 -0.000003 19.162498
						CHANNELS 3 Xrotation Yrotation Zrotation
						JOINT RightToeBase
						{
							OFFSET 0.000000 -0.000002 16.018799
							CHANNELS 3 Xrotation Yrotation Zrotation
							End Site
							{
								OFFSET 0.006790 0.894206 7.757812
							}
						}
					}
				}
			}
		}
	}
	JOINT LeftUpLeg
	{
		OFFSET 7.060482 1.086100 -1.294701
		CHANNELS 3 Xrotation Yrotation Zrotation
		JOINT LeftUpLegRoll
		{
			OFFSET 0.000000 -0.000003 18.530899
			CHANNELS 3 Xrotation Yrotation Zrotation
			JOINT LeftLeg
			{
				OFFSET 0.000000 -0.000004 22.947495
				CHANNELS 3 Xrotation Yrotation Zrotation
				JOINT LeftLegRoll
				{
					OFFSET 0.000000 -0.000004 23.235504
					CHANNELS 3 Xrotation Yrotation Zrotation
					JOINT LeftFoot
					{
						OFFSET 0.000000 -0.000003 18.949600
						CHANNELS 3 Xrotation Yrotation Zrotation
						JOINT LeftToeBase
						{
							OFFSET 0.000000 -0.000003 16.018799
							CHANNELS 3 Xrotation Yrotation Zrotation
							End Site
							{
								OFFSET -0.030426 0.894205 7.757812
							}
						}
					}
				}
			}
		}
	}
}
MOTION
Frames: 7
Frame Time: 0.041667
58.557301 2.827468 96.383781 -3.764970 -0.300560 3.992240 -0.567732 -0.272892 -0.367638 2.880385 -0.532313 -0.718491 4.525433 -0.540880 -0.712062 8.539219 8.465779 -2.622505 8.031771 -7.402236 -2.088337 -21.469296 -76.186997 -25.091900 99.799166 -63.360250 104.176525 -0.000002 -0.000007 0.000001 8.522905 -12.863714 0.330745 -0.000013 0.000030 -3.006861 -5.000200 -7.998735 0.000152 1.665496 63.214268 -1.356120 -47.930255 120.204800 47.731332 0.000001 0.000004 0.000000 10.083202 10.392202 -0.184110 0.000001 -0.000001 3.006300 -5.000180 7.998783 -0.000141 0.431157 -179.449014 1.340597 179.999991 -0.000005 -1.124996 172.429273 -1.039860 -0.616198 -0.000001 0.000003 0.004349 67.355671 6.897336 2.208505 25.456924 -7.346931 0.000002 0.181860 177.404998 0.470255 -0.000020 -0.000004 -1.156360 -11.535438 0.866266 0.431669 -0.000002 -0.000004 -0.216714 70.045004 -6.866159 -2.114215 25.455919 7.355079 0.001445 
58.558201 2.836177 96.378288 -3.750970 -0.297405 3.996061 -0.565832 -0.273317 -0.367936 2.883126 -0.534189 -0.719636 4.528164 -0.542770 -0.713185 8.516016 8.482474 -2.626715 8.027591 -7.429432 -2.091255 -21.479237 -76.186512 -25.102625 99.761210 -63.437055 104.126794 0.000000 -0.000007 0.000001 8.592189 -12.884121 0.339645 -0.000011 0.000030 -3.006860 -5.000197 -7.998734 0.000152 1.651981 63.227833 -1.338915 -47.848067 120.138315 47.636403 0.000002 0.000004 -0.000000 10.110236 10.396870 -0.186495 -0.000002 -0.000001 3.006301 -5.000177 7.998783 -0.000139 0.422566 -179.470010 1.326539 179.999991 -0.000005 -1.123998 172.451294 -1.041891 -0.616060 -0.000002 0.000003 0.002637 67.328836 6.897326 2.209683 25.456923 -7.346931 0.000002 0.125860 177.408003 0.481349 -0.000019 -0.000004 -1.156350 -11.616212 0.855194 0.433902 -0.000002 -0.000004 -0.217213 70.054443 -6.866138 -2.114227 25.452276 7.355073 0.006896 
58.557304 2.826787 96.367195 -3.737208 -0.294258 3.999849 -0.563916 -0.273714 -0.368240 2.885847 -0.536067 -0.720774 4.530886 -0.544661 -0.714300 8.493232 8.499219 -2.630883 8.023314 -7.456791 -2.094136 -21.489305 -76.186020 -25.113475 99.722545 -63.514291 104.077077 -0.000003 -0.000007 0.000001 8.660555 -12.904334 0.348508 -0.000010 0.000030 -3.006860 -5.000199 -7.998734 0.000152 1.637924 63.240790 -1.321162 -47.764841 120.071543 47.539469 0.000002 0.000004 -0.000000 10.136719 10.400661 -0.188747 -0.000002 -0.000001 3.006299 -5.000179 7.998784 -0.000139 0.417185 -179.490008 1.313823 179.999991 -0.000005 -1.123001 172.479174 -1.046915 -0.615210 -0.000001 0.000003 0.000836 67.300531 6.897300 2.210852 25.456926 -7.346931 0.000002 0.070837 177.410011 0.491864 -0.000020 -0.000004 -1.156330 -11.695991 0.844558 0.436073 -0.000002 -0.000004 -0.217641 70.064299 -6.866125 -2.114215 25.446414 7.355073 0.015473 
58.553402 2.818727 96.364693 -3.723618 -0.291118 4.003603 -0.561995 -0.274090 -0.368548 2.888557 -0.537945 -0.721904 4.533607 -0.546554 -0.715408 8.470749 8.516007 -2.635039 8.018967 -7.484256 -2.096975 -21.499265 -76.185439 -25.124221 99.683250 -63.591745 104.027258 -0.000002 -0.000007 0.000001 8.728276 -12.924346 0.357358 -0.000011 0.000030 -3.006860 -5.000200 -7.998734 0.000152 1.623482 63.253357 -1.303023 -47.680895 120.004593 47.441114 0.000005 0.000004 -0.000000 10.162814 10.403771 -0.190871 -0.000002 -0.000001 3.006300 -5.000182 7.998782 -0.000140 0.414048 -179.510007 1.302031 179.999991 -0.000005 -1.122004 172.511208 -1.051949 -0.614279 -0.000001 0.000003 -0.001028 67.271182 6.897299 2.212091 25.456926 -7.346931 0.000001 0.016492 177.413003 0.501971 -0.000020 -0.000004 -1.156300 -11.775067 0.834226 0.438197 -0.000002 -0.000004 -0.218020 70.074476 -6.866121 -2.114184 25.439251 7.355054 0.026195 
58.547195 2.819760 96.343086 -3.710116 -0.287980 4.007346 -0.560071 -0.274455 -0.368858 2.891269 -0.539825 -0.723031 4.536309 -0.548446 -0.716512 8.448439 8.532820 -2.639183 8.014584 -7.511784 -2.099797 -21.509219 -76.184852 -25.134941 99.643355 -63.669425 103.977165 -0.000002 -0.000007 0.000001 8.795620 -12.944346 0.366233 -0.000009 0.000031 -3.006861 -5.000200 -7.998735 0.000152 1.608815 63.265638 -1.284652 -47.596347 119.937548 47.341773 0.000002 0.000005 -0.000001 10.188743 10.406591 -0.192958 -0.000001 -0.000001 3.006300 -5.000179 7.998784 -0.000138 0.412188 -179.530020 1.290771 179.999991 -0.000005 -1.122004 172.545591 -1.057978 -0.613415 -0.000001 0.000003 -0.002927 67.241232 6.897327 2.213277 25.456923 -7.346932 0.000002 -0.037465 177.414997 0.511843 -0.000019 -0.000004 -1.156270 -11.853745 0.824064 0.440281 -0.000002 -0.000004 -0.218368 70.084769 -6.866147 -2.114153 25.431057 7.355041 0.038180 
58.536903 2.805527 96.338989 -3.696645 -0.284842 4.011087 -0.558143 -0.274817 -0.369169 2.893970 -0.541704 -0.724158 4.539021 -0.550339 -0.717616 8.426178 8.549647 -2.643312 8.010197 -7.539324 -2.102621 -21.519199 -76.184251 -25.145703 99.603085 -63.746989 103.926799 -0.000002 -0.000006 0.000001 8.862894 -12.964225 0.375125 -0.000010 0.000031 -3.006861 -5.000202 -7.998734 0.000152 1.594085 63.277905 -1.266221 -47.510198 119.871227 47.240549 0.000003 0.000005 0.000000 10.214567 10.409214 -0.195013 -0.000004 -0.000001 3.006300 -5.000181 7.998785 -0.000139 0.410653 -179.550018 1.279646 179.999991 -0.000005 -1.121007 172.580548 -1.064022 -0.612548 -0.000001 0.000003 -0.004836 67.211158 6.897324 2.214561 25.456926 -7.346931 0.000001 -0.091324 177.417005 0.521655 -0.000020 -0.000004 -1.156240 -11.932423 0.813942 0.442336 -0.000002 -0.000004 -0.218709 70.095165 -6.866142 -2.114210 25.422779 7.355023 0.050463 
58.540600 2.801488 96.359192 -3.683113 -0.281699 4.014827 -0.556216 -0.275184 -0.369478 2.896682 -0.543585 -0.725286 4.541722 -0.552231 -0.718721 8.403824 8.566472 -2.647424 8.005835 -7.566833 -2.105459 -21.529149 -76.183657 -25.156437 99.562520 -63.824539 103.876058 -0.000002 -0.000007 0.000001 8.930356 -12.984169 0.384092 -0.000012 0.000030 -3.006861 -5.000200 -7.998735 0.000152 1.579445 63.290254 -1.247878 -47.423735 119.804933 47.139230 0.000003 0.000005 -0.000000 10.240499 10.412126 -0.197112 -0.000002 -0.000001 3.006299 -5.000182 7.998784 -0.000141 0.408476 -179.570017 1.268256 179.999991 -0.000005 -1.119996 172.614344 -1.070051 -0.611694 -0.000001 0.000003 -0.006726 67.181413 6.897333 2.215727 25.456923 -7.346931 0.000001 -0.145374 177.419013 0.531579 -0.000020 -0.000004 -1.156210 -12.011200 0.803729 0.444369 -0.000002 -0.000004 -0.219065 70.105444 -6.866130 -2.114272 25.414902 7.355000 0.062138 
